<svg xmlns="http://www.w3.org/2000/svg" version="1.1" xmlns:xlink="http://www.w3.org/1999/xlink" xmlns:svgjs="http://svgjs.dev/svgjs" width="1440" height="1024" preserveAspectRatio="none" viewBox="0 0 1440 1024"><g mask="url(&quot;#SvgjsMask3365&quot;)" fill="none"><rect width="1440" height="1024" x="0" y="0" fill="url(&quot;#SvgjsLinearGradient3366&quot;)"></rect><path d="M10.68 -18.42L40.13 -1.42L40.13 32.58L10.68 49.58L-18.77 32.58L-18.77 -1.42zM40.13 134.58L69.57 151.58L69.57 185.58L40.13 202.58L10.68 185.58L10.68 151.58zM10.68 491.58L40.13 508.58L40.13 542.58L10.68 559.58L-18.77 542.58L-18.77 508.58zM40.13 746.58L69.57 763.58L69.57 797.58L40.13 814.58L10.68 797.58L10.68 763.58zM40.13 848.58L69.57 865.58L69.57 899.58L40.13 916.58L10.68 899.58L10.68 865.58zM69.57 -18.42L99.02 -1.42L99.02 32.58L69.57 49.58L40.13 32.58L40.13 -1.42zM69.57 185.58L99.02 202.58L99.02 236.58L69.57 253.58L40.13 236.58L40.13 202.58zM69.57 491.58L99.02 508.58L99.02 542.58L69.57 559.58L40.13 542.58L40.13 508.58zM69.57 797.58L99.02 814.58L99.02 848.58L69.57 865.58L40.13 848.58L40.13 814.58zM157.91 134.58L187.35 151.58L187.35 185.58L157.91 202.58L128.46 185.58L128.46 151.58zM128.46 389.58L157.91 406.58L157.91 440.58L128.46 457.58L99.02 440.58L99.02 406.58zM187.35 -18.42L216.8 -1.42L216.8 32.58L187.35 49.58L157.91 32.58L157.91 -1.42zM216.8 440.58L246.25 457.58L246.25 491.58L216.8 508.58L187.35 491.58L187.35 457.58zM216.8 950.58L246.25 967.58L246.25 1001.58L216.8 1018.58L187.35 1001.58L187.35 967.58zM275.69 848.58L305.14 865.58L305.14 899.58L275.69 916.58L246.25 899.58L246.25 865.58zM334.58 134.58L364.03 151.58L364.03 185.58L334.58 202.58L305.14 185.58L305.14 151.58zM364.03 83.58L393.47 100.58L393.47 134.58L364.03 151.58L334.58 134.58L334.58 100.58zM393.47 134.58L422.92 151.58L422.92 185.58L393.47 202.58L364.03 185.58L364.03 151.58zM364.03 695.58L393.47 712.58L393.47 746.58L364.03 763.58L334.58 746.58L334.58 712.58zM422.92 83.58L452.37 100.58L452.37 134.58L422.92 151.58L393.47 134.58L393.47 100.58zM452.37 134.58L481.81 151.58L481.81 185.58L452.37 202.58L422.92 185.58L422.92 151.58zM422.92 389.58L452.37 406.58L452.37 440.58L422.92 457.58L393.47 440.58L393.47 406.58zM422.92 695.58L452.37 712.58L452.37 746.58L422.92 763.58L393.47 746.58L393.47 712.58zM422.92 899.58L452.37 916.58L452.37 950.58L422.92 967.58L393.47 950.58L393.47 916.58zM481.81 -18.42L511.26 -1.42L511.26 32.58L481.81 49.58L452.37 32.58L452.37 -1.42zM481.81 491.58L511.26 508.58L511.26 542.58L481.81 559.58L452.37 542.58L452.37 508.58zM511.26 644.58L540.7 661.58L540.7 695.58L511.26 712.58L481.81 695.58L481.81 661.58zM511.26 848.58L540.7 865.58L540.7 899.58L511.26 916.58L481.81 899.58L481.81 865.58zM481.81 1001.58L511.26 1018.58L511.26 1052.58L481.81 1069.58L452.37 1052.58L452.37 1018.58zM570.15 644.58L599.59 661.58L599.59 695.58L570.15 712.58L540.7 695.58L540.7 661.58zM540.7 695.58L570.15 712.58L570.15 746.58L540.7 763.58L511.26 746.58L511.26 712.58zM629.04 32.58L658.49 49.58L658.49 83.58L629.04 100.58L599.59 83.58L599.59 49.58zM629.04 338.58L658.49 355.58L658.49 389.58L629.04 406.58L599.59 389.58L599.59 355.58zM629.04 542.58L658.49 559.58L658.49 593.58L629.04 610.58L599.59 593.58L599.59 559.58zM658.49 -18.42L687.93 -1.42L687.93 32.58L658.49 49.58L629.04 32.58L629.04 -1.42zM687.93 440.58L717.38 457.58L717.38 491.58L687.93 508.58L658.49 491.58L658.49 457.58zM658.49 695.58L687.93 712.58L687.93 746.58L658.49 763.58L629.04 746.58L629.04 712.58zM687.93 848.58L717.38 865.58L717.38 899.58L687.93 916.58L658.49 899.58L658.49 865.58zM717.38 -18.42L746.82 -1.42L746.82 32.58L717.38 49.58L687.93 32.58L687.93 -1.42zM717.38 287.58L746.82 304.58L746.82 338.58L717.38 355.58L687.93 338.58L687.93 304.58zM746.82 746.58L776.27 763.58L776.27 797.58L746.82 814.58L717.38 797.58L717.38 763.58zM717.38 1001.58L746.82 1018.58L746.82 1052.58L717.38 1069.58L687.93 1052.58L687.93 1018.58zM776.27 491.58L805.71 508.58L805.71 542.58L776.27 559.58L746.82 542.58L746.82 508.58zM776.27 899.58L805.71 916.58L805.71 950.58L776.27 967.58L746.82 950.58L746.82 916.58zM835.16 -18.42L864.61 -1.42L864.61 32.58L835.16 49.58L805.71 32.58L805.71 -1.42zM835.16 83.58L864.61 100.58L864.61 134.58L835.16 151.58L805.71 134.58L805.71 100.58zM864.61 848.58L894.05 865.58L894.05 899.58L864.61 916.58L835.16 899.58L835.16 865.58zM923.5 338.58L952.94 355.58L952.94 389.58L923.5 406.58L894.05 389.58L894.05 355.58zM894.05 389.58L923.5 406.58L923.5 440.58L894.05 457.58L864.61 440.58L864.61 406.58zM894.05 593.58L923.5 610.58L923.5 644.58L894.05 661.58L864.61 644.58L864.61 610.58zM952.94 -18.42L982.39 -1.42L982.39 32.58L952.94 49.58L923.5 32.58L923.5 -1.42zM982.39 32.58L1011.83 49.58L1011.83 83.58L982.39 100.58L952.94 83.58L952.94 49.58zM982.39 440.58L1011.83 457.58L1011.83 491.58L982.39 508.58L952.94 491.58L952.94 457.58zM952.94 593.58L982.39 610.58L982.39 644.58L952.94 661.58L923.5 644.58L923.5 610.58zM952.94 695.58L982.39 712.58L982.39 746.58L952.94 763.58L923.5 746.58L923.5 712.58zM982.39 848.58L1011.83 865.58L1011.83 899.58L982.39 916.58L952.94 899.58L952.94 865.58zM1011.83 185.58L1041.28 202.58L1041.28 236.58L1011.83 253.58L982.39 236.58L982.39 202.58zM1041.28 746.58L1070.73 763.58L1070.73 797.58L1041.28 814.58L1011.83 797.58L1011.83 763.58zM1100.17 134.58L1129.62 151.58L1129.62 185.58L1100.17 202.58L1070.73 185.58L1070.73 151.58zM1100.17 338.58L1129.62 355.58L1129.62 389.58L1100.17 406.58L1070.73 389.58L1070.73 355.58zM1100.17 542.58L1129.62 559.58L1129.62 593.58L1100.17 610.58L1070.73 593.58L1070.73 559.58zM1070.73 797.58L1100.17 814.58L1100.17 848.58L1070.73 865.58L1041.28 848.58L1041.28 814.58zM1100.17 950.58L1129.62 967.58L1129.62 1001.58L1100.17 1018.58L1070.73 1001.58L1070.73 967.58zM1159.06 950.58L1188.51 967.58L1188.51 1001.58L1159.06 1018.58L1129.62 1001.58L1129.62 967.58zM1217.95 134.58L1247.4 151.58L1247.4 185.58L1217.95 202.58L1188.51 185.58L1188.51 151.58zM1217.95 542.58L1247.4 559.58L1247.4 593.58L1217.95 610.58L1188.51 593.58L1188.51 559.58zM1247.4 185.58L1276.85 202.58L1276.85 236.58L1247.4 253.58L1217.95 236.58L1217.95 202.58zM1276.85 236.58L1306.29 253.58L1306.29 287.58L1276.85 304.58L1247.4 287.58L1247.4 253.58zM1276.85 338.58L1306.29 355.58L1306.29 389.58L1276.85 406.58L1247.4 389.58L1247.4 355.58zM1247.4 491.58L1276.85 508.58L1276.85 542.58L1247.4 559.58L1217.95 542.58L1217.95 508.58zM1247.4 695.58L1276.85 712.58L1276.85 746.58L1247.4 763.58L1217.95 746.58L1217.95 712.58zM1306.29 593.58L1335.74 610.58L1335.74 644.58L1306.29 661.58L1276.85 644.58L1276.85 610.58zM1306.29 695.58L1335.74 712.58L1335.74 746.58L1306.29 763.58L1276.85 746.58L1276.85 712.58zM1306.29 797.58L1335.74 814.58L1335.74 848.58L1306.29 865.58L1276.85 848.58L1276.85 814.58zM1394.63 236.58L1424.07 253.58L1424.07 287.58L1394.63 304.58L1365.18 287.58L1365.18 253.58zM1394.63 848.58L1424.07 865.58L1424.07 899.58L1394.63 916.58L1365.18 899.58L1365.18 865.58zM1365.18 899.58L1394.63 916.58L1394.63 950.58L1365.18 967.58L1335.74 950.58L1335.74 916.58zM1424.07 389.58L1453.52 406.58L1453.52 440.58L1424.07 457.58L1394.63 440.58L1394.63 406.58zM1453.52 440.58L1482.96 457.58L1482.96 491.58L1453.52 508.58L1424.07 491.58L1424.07 457.58z" stroke="rgba(173, 173, 173, 1)" stroke-width="2"></path><path d="M26.8 124.53L77.9 154.03L77.9 213.03L26.8 242.53L-24.3 213.03L-24.3 154.03zM77.9 213.03L128.99 242.53L128.99 301.53L77.9 331.03L26.8 301.53L26.8 242.53zM26.8 301.53L77.9 331.03L77.9 390.03L26.8 419.53L-24.3 390.03L-24.3 331.03zM77.9 390.03L128.99 419.53L128.99 478.53L77.9 508.03L26.8 478.53L26.8 419.53zM26.8 655.53L77.9 685.03L77.9 744.03L26.8 773.53L-24.3 744.03L-24.3 685.03zM77.9 744.03L128.99 773.53L128.99 832.53L77.9 862.03L26.8 832.53L26.8 773.53zM26.8 832.53L77.9 862.03L77.9 921.03L26.8 950.53L-24.3 921.03L-24.3 862.03zM77.9 921.03L128.99 950.53L128.99 1009.53L77.9 1039.03L26.8 1009.53L26.8 950.53zM128.99 124.53L180.09 154.03L180.09 213.03L128.99 242.53L77.9 213.03L77.9 154.03zM128.99 301.53L180.09 331.03L180.09 390.03L128.99 419.53L77.9 390.03L77.9 331.03zM128.99 655.53L180.09 685.03L180.09 744.03L128.99 773.53L77.9 744.03L77.9 685.03zM180.09 921.03L231.19 950.53L231.19 1009.53L180.09 1039.03L128.99 1009.53L128.99 950.53zM282.28 213.03L333.38 242.53L333.38 301.53L282.28 331.03L231.19 301.53L231.19 242.53zM231.19 478.53L282.28 508.03L282.28 567.03L231.19 596.53L180.09 567.03L180.09 508.03zM282.28 744.03L333.38 773.53L333.38 832.53L282.28 862.03L231.19 832.53L231.19 773.53zM231.19 1009.53L282.28 1039.03L282.28 1098.03L231.19 1127.53L180.09 1098.03L180.09 1039.03zM333.38 -52.47L384.48 -22.97L384.48 36.03L333.38 65.53L282.28 36.03L282.28 -22.97zM384.48 36.03L435.58 65.53L435.58 124.53L384.48 154.03L333.38 124.53L333.38 65.53zM333.38 124.53L384.48 154.03L384.48 213.03L333.38 242.53L282.28 213.03L282.28 154.03zM333.38 301.53L384.48 331.03L384.48 390.03L333.38 419.53L282.28 390.03L282.28 331.03zM384.48 567.03L435.58 596.53L435.58 655.53L384.48 685.03L333.38 655.53L333.38 596.53zM333.38 655.53L384.48 685.03L384.48 744.03L333.38 773.53L282.28 744.03L282.28 685.03zM333.38 832.53L384.48 862.03L384.48 921.03L333.38 950.53L282.28 921.03L282.28 862.03zM384.48 921.03L435.58 950.53L435.58 1009.53L384.48 1039.03L333.38 1009.53L333.38 950.53zM435.58 -52.47L486.67 -22.97L486.67 36.03L435.58 65.53L384.48 36.03L384.48 -22.97zM486.67 36.03L537.77 65.53L537.77 124.53L486.67 154.03L435.58 124.53L435.58 65.53zM588.87 36.03L639.96 65.53L639.96 124.53L588.87 154.03L537.77 124.53L537.77 65.53zM537.77 301.53L588.87 331.03L588.87 390.03L537.77 419.53L486.67 390.03L486.67 331.03zM588.87 390.03L639.96 419.53L639.96 478.53L588.87 508.03L537.77 478.53L537.77 419.53zM537.77 478.53L588.87 508.03L588.87 567.03L537.77 596.53L486.67 567.03L486.67 508.03zM588.87 567.03L639.96 596.53L639.96 655.53L588.87 685.03L537.77 655.53L537.77 596.53zM537.77 832.53L588.87 862.03L588.87 921.03L537.77 950.53L486.67 921.03L486.67 862.03zM588.87 921.03L639.96 950.53L639.96 1009.53L588.87 1039.03L537.77 1009.53L537.77 950.53zM639.96 -52.47L691.06 -22.97L691.06 36.03L639.96 65.53L588.87 36.03L588.87 -22.97zM639.96 124.53L691.06 154.03L691.06 213.03L639.96 242.53L588.87 213.03L588.87 154.03zM639.96 655.53L691.06 685.03L691.06 744.03L639.96 773.53L588.87 744.03L588.87 685.03zM691.06 921.03L742.16 950.53L742.16 1009.53L691.06 1039.03L639.96 1009.53L639.96 950.53zM639.96 1009.53L691.06 1039.03L691.06 1098.03L639.96 1127.53L588.87 1098.03L588.87 1039.03zM742.16 -52.47L793.25 -22.97L793.25 36.03L742.16 65.53L691.06 36.03L691.06 -22.97zM793.25 36.03L844.35 65.53L844.35 124.53L793.25 154.03L742.16 124.53L742.16 65.53zM742.16 301.53L793.25 331.03L793.25 390.03L742.16 419.53L691.06 390.03L691.06 331.03zM742.16 478.53L793.25 508.03L793.25 567.03L742.16 596.53L691.06 567.03L691.06 508.03zM793.25 567.03L844.35 596.53L844.35 655.53L793.25 685.03L742.16 655.53L742.16 596.53zM742.16 655.53L793.25 685.03L793.25 744.03L742.16 773.53L691.06 744.03L691.06 685.03zM793.25 921.03L844.35 950.53L844.35 1009.53L793.25 1039.03L742.16 1009.53L742.16 950.53zM742.16 1009.53L793.25 1039.03L793.25 1098.03L742.16 1127.53L691.06 1098.03L691.06 1039.03zM844.35 -52.47L895.45 -22.97L895.45 36.03L844.35 65.53L793.25 36.03L793.25 -22.97zM895.45 36.03L946.55 65.53L946.55 124.53L895.45 154.03L844.35 124.53L844.35 65.53zM844.35 478.53L895.45 508.03L895.45 567.03L844.35 596.53L793.25 567.03L793.25 508.03zM997.64 36.03L1048.74 65.53L1048.74 124.53L997.64 154.03L946.55 124.53L946.55 65.53zM946.55 124.53L997.64 154.03L997.64 213.03L946.55 242.53L895.45 213.03L895.45 154.03zM997.64 213.03L1048.74 242.53L1048.74 301.53L997.64 331.03L946.55 301.53L946.55 242.53zM946.55 301.53L997.64 331.03L997.64 390.03L946.55 419.53L895.45 390.03L895.45 331.03zM997.64 390.03L1048.74 419.53L1048.74 478.53L997.64 508.03L946.55 478.53L946.55 419.53zM946.55 478.53L997.64 508.03L997.64 567.03L946.55 596.53L895.45 567.03L895.45 508.03zM997.64 744.03L1048.74 773.53L1048.74 832.53L997.64 862.03L946.55 832.53L946.55 773.53zM946.55 1009.53L997.64 1039.03L997.64 1098.03L946.55 1127.53L895.45 1098.03L895.45 1039.03zM1099.84 36.03L1150.93 65.53L1150.93 124.53L1099.84 154.03L1048.74 124.53L1048.74 65.53zM1048.74 124.53L1099.84 154.03L1099.84 213.03L1048.74 242.53L997.64 213.03L997.64 154.03zM1099.84 213.03L1150.93 242.53L1150.93 301.53L1099.84 331.03L1048.74 301.53L1048.74 242.53zM1048.74 301.53L1099.84 331.03L1099.84 390.03L1048.74 419.53L997.64 390.03L997.64 331.03zM1048.74 478.53L1099.84 508.03L1099.84 567.03L1048.74 596.53L997.64 567.03L997.64 508.03zM1048.74 655.53L1099.84 685.03L1099.84 744.03L1048.74 773.53L997.64 744.03L997.64 685.03zM1099.84 744.03L1150.93 773.53L1150.93 832.53L1099.84 862.03L1048.74 832.53L1048.74 773.53zM1202.03 36.03L1253.13 65.53L1253.13 124.53L1202.03 154.03L1150.93 124.53L1150.93 65.53zM1202.03 390.03L1253.13 419.53L1253.13 478.53L1202.03 508.03L1150.93 478.53L1150.93 419.53zM1150.93 478.53L1202.03 508.03L1202.03 567.03L1150.93 596.53L1099.84 567.03L1099.84 508.03zM1150.93 832.53L1202.03 862.03L1202.03 921.03L1150.93 950.53L1099.84 921.03L1099.84 862.03zM1202.03 921.03L1253.13 950.53L1253.13 1009.53L1202.03 1039.03L1150.93 1009.53L1150.93 950.53zM1304.22 36.03L1355.32 65.53L1355.32 124.53L1304.22 154.03L1253.13 124.53L1253.13 65.53zM1304.22 213.03L1355.32 242.53L1355.32 301.53L1304.22 331.03L1253.13 301.53L1253.13 242.53zM1253.13 301.53L1304.22 331.03L1304.22 390.03L1253.13 419.53L1202.03 390.03L1202.03 331.03zM1304.22 567.03L1355.32 596.53L1355.32 655.53L1304.22 685.03L1253.13 655.53L1253.13 596.53zM1253.13 655.53L1304.22 685.03L1304.22 744.03L1253.13 773.53L1202.03 744.03L1202.03 685.03zM1304.22 744.03L1355.32 773.53L1355.32 832.53L1304.22 862.03L1253.13 832.53L1253.13 773.53zM1355.32 -52.47L1406.42 -22.97L1406.42 36.03L1355.32 65.53L1304.22 36.03L1304.22 -22.97zM1406.42 36.03L1457.51 65.53L1457.51 124.53L1406.42 154.03L1355.32 124.53L1355.32 65.53zM1355.32 124.53L1406.42 154.03L1406.42 213.03L1355.32 242.53L1304.22 213.03L1304.22 154.03zM1406.42 213.03L1457.51 242.53L1457.51 301.53L1406.42 331.03L1355.32 301.53L1355.32 242.53zM1355.32 301.53L1406.42 331.03L1406.42 390.03L1355.32 419.53L1304.22 390.03L1304.22 331.03zM1457.51 124.53L1508.61 154.03L1508.61 213.03L1457.51 242.53L1406.42 213.03L1406.42 154.03zM1508.61 213.03L1559.71 242.53L1559.71 301.53L1508.61 331.03L1457.51 301.53L1457.51 242.53zM1457.51 301.53L1508.61 331.03L1508.61 390.03L1457.51 419.53L1406.42 390.03L1406.42 331.03zM1508.61 567.03L1559.71 596.53L1559.71 655.53L1508.61 685.03L1457.51 655.53L1457.51 596.53zM1508.61 744.03L1559.71 773.53L1559.71 832.53L1508.61 862.03L1457.51 832.53L1457.51 773.53z" stroke="rgba(255, 255, 255, 0.93)" stroke-width="2"></path></g><defs><mask id="SvgjsMask3365"><rect width="1440" height="1024" fill="#ffffff"></rect></mask><linearGradient x1="7.22%" y1="-10.16%" x2="92.78%" y2="110.16%" gradientUnits="userSpaceOnUse" id="SvgjsLinearGradient3366"><stop stop-color="rgba(14, 1, 31, 0)" offset="0.42"></stop><stop stop-color="rgba(0, 0, 0, 1)" offset="0.97"></stop></linearGradient></defs></svg>